<svg width="292" height="69" viewBox="0 0 292 69" fill="none" xmlns="http://www.w3.org/2000/svg">
<path d="M33.5071 20.2173V47.6809L56.5451 34.488L33.5071 20.2173Z" fill="#002145"/>
<path d="M72.46 44.3495V25.4346L56.5911 34.5199L72.46 44.3495Z" fill="#002145"/>
<path d="M56.267 37.7326C54.7017 48.3636 45.4639 56.5516 34.3368 56.5516C22.1133 56.5516 12.1699 46.674 12.1699 34.5314C12.1699 22.3888 22.1133 12.5112 34.3368 12.5112C45.5191 12.5112 54.7936 20.7814 56.2899 31.4878L67.3573 25.1493C65.7782 19.6351 62.8062 14.5799 58.6114 10.4152C52.1296 3.97169 43.5079 0.42572 34.3368 0.42572C25.1657 0.42572 16.544 3.97169 10.0599 10.4152C3.5758 16.8564 0.00390625 25.421 0.00390625 34.5314C0.00390625 43.6418 3.5758 52.2064 10.0599 58.6476C16.544 65.0888 25.1657 68.6371 34.3345 68.6371C43.5033 68.6371 52.1273 65.0888 58.6114 58.6476C62.6568 54.6267 65.5621 49.7816 67.1803 44.4912L56.267 37.7303V37.7326Z" fill="#002145"/>
<path d="M108.48 17.1667L106.11 19.4089C104.501 17.7216 102.688 16.8745 100.676 16.8745C98.9779 16.8745 97.5459 17.4499 96.3852 18.6029C95.2221 19.7583 94.6383 21.1785 94.6383 22.8704C94.6383 24.044 94.8957 25.0921 95.4152 26.0077C95.9278 26.921 96.6564 27.6402 97.5988 28.1585C98.5389 28.6791 99.587 28.9394 100.739 28.9394C101.718 28.9394 102.621 28.759 103.43 28.3937C104.244 28.0261 105.138 27.3639 106.11 26.4027L108.404 28.7842C107.092 30.056 105.855 30.9373 104.683 31.4305C103.515 31.9214 102.182 32.168 100.681 32.168C97.9183 32.168 95.6565 31.3004 93.8936 29.5582C92.1352 27.816 91.2549 25.5875 91.2549 22.8636C91.2549 21.0986 91.6571 19.5368 92.457 18.1691C93.2569 16.8014 94.4061 15.7008 95.8979 14.8674C97.3942 14.0363 99.0032 13.6185 100.727 13.6185C102.196 13.6185 103.609 13.9244 104.966 14.5409C106.324 15.1574 107.494 16.0342 108.48 17.1667Z" fill="#002145"/>
<path d="M131.182 16.911C129.539 16.911 128.153 17.4795 127.031 18.6143C125.912 19.7491 125.353 21.1945 125.353 22.948C125.353 24.9025 126.057 26.4461 127.466 27.5809C128.564 28.4713 129.824 28.9143 131.242 28.9143C132.849 28.9143 134.219 28.3389 135.345 27.1836C136.474 26.0328 137.039 24.6103 137.039 22.9229C137.039 21.2356 136.469 19.8176 135.329 18.6532C134.193 17.4909 132.81 16.9087 131.18 16.9087M131.221 13.6208C133.738 13.6208 135.899 14.5227 137.71 16.3379C139.519 18.144 140.425 20.3474 140.425 22.9503C140.425 25.5259 139.533 27.7087 137.745 29.4966C135.959 31.2821 133.794 32.1726 131.244 32.1726C128.578 32.1726 126.36 31.2547 124.595 29.4189C122.825 27.5877 121.942 25.4094 121.942 22.891C121.942 21.2013 122.356 19.6464 123.179 18.2307C124 16.8105 125.133 15.6894 126.569 14.8629C128.013 14.0317 129.56 13.6185 131.219 13.6185" fill="#002145"/>
<path d="M156.726 14.0638H160.027L164.146 26.3845L168.306 14.0638H171.6L174.585 31.7275H171.312L169.405 20.5713L165.628 31.7275H162.645L158.898 20.5713L156.949 31.7275H153.648L156.726 14.0638Z" fill="#002145"/>
<path d="M192.036 20.9685H193.114C193.96 20.9685 194.55 20.9069 194.877 20.7836C195.205 20.6649 195.467 20.4685 195.656 20.1899C195.847 19.9137 195.946 19.5757 195.946 19.183C195.946 18.5003 195.674 18.0025 195.143 17.692C194.76 17.4614 194.038 17.3404 192.992 17.3404H192.033L192.036 20.9685ZM188.652 14.0638H192.243C194.183 14.0638 195.582 14.2419 196.44 14.5981C197.299 14.9543 197.975 15.532 198.472 16.3266C198.966 17.1258 199.216 18.0802 199.216 19.1899C199.216 20.4228 198.892 21.448 198.239 22.2655C197.594 23.0783 196.711 23.6491 195.603 23.9711C194.946 24.156 193.762 24.2474 192.033 24.2474V31.7298H188.652V14.0638Z" fill="#002145"/>
<path d="M213.917 14.0638H217.301V28.5217H222.229V31.7275H213.917V14.0638Z" fill="#002145"/>
<path d="M236.202 14.0638H245.908V17.3564H239.562V20.5484H245.908V23.7793H239.562V28.4258H245.908V31.7275H236.202V14.0638Z" fill="#002145"/>
<path d="M258.699 14.0638H268.523V17.3792H265.287V31.7275H261.851V17.3792H258.699V14.0638Z" fill="#002145"/>
<path d="M282.241 14.0638H291.95V17.3564H285.603V20.5484H291.95V23.7793H285.603V28.4258H291.95V31.7275H282.241V14.0638Z" fill="#002145"/>
<path d="M70.3293 48.1762H70.6649C70.8258 48.1762 70.9338 48.1534 70.9936 48.1055C71.0511 48.0575 71.0809 47.9959 71.0809 47.9159C71.0809 47.8657 71.0672 47.82 71.0396 47.7812C71.012 47.7424 70.9729 47.7104 70.9223 47.6922C70.8718 47.6739 70.7798 47.6625 70.6442 47.6625H70.3293V48.1762ZM70.0535 49.1352V47.4319H70.6442C70.8465 47.4319 70.9913 47.4479 71.0809 47.4798C71.1706 47.5118 71.2418 47.5666 71.297 47.6442C71.3499 47.7219 71.3775 47.8063 71.3775 47.8954C71.3775 48.0187 71.3338 48.1283 71.2441 48.2196C71.1545 48.3132 71.0373 48.3635 70.8879 48.3749C70.9499 48.4 70.9959 48.4297 71.035 48.4662C71.1039 48.5347 71.189 48.6466 71.2878 48.8042L71.497 49.1375H71.1591L71.0074 48.8681C70.8879 48.658 70.7913 48.5256 70.7178 48.4708C70.6672 48.432 70.5937 48.4114 70.4948 48.4114H70.3316V49.1352H70.0535ZM70.7523 46.9364C70.527 46.9364 70.3109 46.9935 70.0972 47.1077C69.8857 47.2218 69.7202 47.3839 69.5984 47.5963C69.4789 47.8086 69.4191 48.0301 69.4191 48.2607C69.4191 48.4868 69.4789 48.7083 69.5938 48.916C69.7133 49.1261 69.8765 49.2882 70.088 49.4047C70.2994 49.5234 70.5201 49.5805 70.75 49.5805C70.9798 49.5805 71.2005 49.5211 71.4119 49.4047C71.6234 49.2882 71.7866 49.1261 71.9038 48.916C72.021 48.706 72.0808 48.4868 72.0808 48.2607C72.0808 48.0301 72.021 47.8109 71.9015 47.5963C71.782 47.3839 71.6165 47.2218 71.405 47.1077C71.1913 46.9935 70.9729 46.9364 70.7523 46.9364ZM70.7523 46.6738C71.0212 46.6738 71.2809 46.7423 71.536 46.8793C71.7912 47.0163 71.9889 47.2104 72.1314 47.4661C72.2739 47.7196 72.3451 47.9844 72.3451 48.2607C72.3451 48.5324 72.2762 48.7973 72.136 49.0485C71.9958 49.2996 71.8004 49.496 71.5452 49.6353C71.2924 49.7746 71.0281 49.8431 70.7523 49.8431C70.4764 49.8431 70.2121 49.7746 69.9593 49.6353C69.7064 49.496 69.5088 49.2996 69.3663 49.0485C69.226 48.7973 69.1548 48.5347 69.1548 48.2607C69.1548 47.9844 69.226 47.7196 69.3685 47.4661C69.5111 47.2104 69.711 47.0163 69.9662 46.8793C70.2213 46.7423 70.4833 46.6738 70.75 46.6738" fill="#002145"/>
<path d="M99.8423 43.66H101.736L103.727 50.4048L105.869 43.66H107.342L109.485 50.4619L111.436 43.66H113.215L110.271 52.4964H108.567L106.501 46.32L104.453 52.4964H102.846L99.8423 43.66Z" fill="#002145"/>
<path d="M124.462 51.2039C124.358 51.3181 124.207 51.4642 124.002 51.6423C123.797 51.8204 123.533 51.9916 123.209 52.156C122.883 52.3204 122.501 52.4643 122.06 52.583C121.621 52.704 121.12 52.7634 120.559 52.7634C119.869 52.7634 119.239 52.6492 118.665 52.4209C118.09 52.1926 117.601 51.8706 117.192 51.4528C116.782 51.0349 116.467 50.5349 116.245 49.9526C116.022 49.3704 115.909 48.7242 115.909 48.0141C115.909 47.3679 116.017 46.7629 116.235 46.1989C116.451 45.6349 116.757 45.1486 117.152 44.7353C117.548 44.3243 118.017 43.9978 118.559 43.758C119.102 43.5183 119.697 43.3973 120.347 43.3973C121.113 43.3973 121.77 43.5434 122.317 43.8357C122.864 44.1279 123.315 44.5138 123.666 44.9956C124.016 45.4774 124.276 46.0276 124.441 46.6487C124.607 47.2698 124.689 47.9159 124.689 48.5872H117.67C117.683 48.98 117.768 49.3407 117.927 49.6695C118.086 49.9983 118.299 50.2837 118.568 50.5235C118.835 50.7632 119.143 50.955 119.485 51.0943C119.83 51.2336 120.193 51.3044 120.575 51.3044C121.327 51.3044 121.945 51.1788 122.43 50.923C122.915 50.6696 123.264 50.423 123.483 50.181L124.459 51.2062L124.462 51.2039ZM122.91 47.3086C122.86 46.6236 122.616 46.0413 122.184 45.5596C121.749 45.0778 121.138 44.838 120.347 44.838C119.938 44.838 119.573 44.9065 119.246 45.0481C118.922 45.1874 118.644 45.3701 118.414 45.5984C118.184 45.8267 118.005 46.0893 117.879 46.3861C117.752 46.6829 117.681 46.9912 117.67 47.3086H122.91Z" fill="#002145"/>
<path d="M134.925 51.375C134.86 51.4504 134.754 51.5691 134.61 51.7267C134.463 51.8842 134.267 52.0395 134.026 52.1925C133.784 52.3454 133.499 52.4779 133.175 52.592C132.851 52.7062 132.47 52.7633 132.038 52.7633C131.477 52.7633 130.953 52.656 130.47 52.4413C129.987 52.2267 129.564 51.9207 129.208 51.5303C128.85 51.1376 128.574 50.6604 128.376 50.0964C128.178 49.5324 128.08 48.9022 128.08 48.2058C128.08 47.3701 128.227 46.6509 128.521 46.0504C128.813 45.4476 129.187 44.9544 129.64 44.5685C130.093 44.1826 130.583 43.8995 131.114 43.7237C131.642 43.5456 132.143 43.4565 132.615 43.4565C133.251 43.4565 133.75 43.5319 134.106 43.6849C134.463 43.8378 134.738 43.952 134.929 44.0274V39.8284H136.651V51.6011C136.651 51.8865 136.658 52.1879 136.669 52.503H134.987L134.929 51.3819L134.925 51.375ZM134.925 45.6165C134.796 45.5161 134.561 45.3791 134.217 45.2078C133.872 45.0366 133.382 44.9521 132.743 44.9521C132.323 44.9521 131.936 45.0274 131.587 45.1804C131.235 45.3334 130.93 45.548 130.668 45.8266C130.406 46.1052 130.201 46.4477 130.056 46.8518C129.909 47.2582 129.836 47.7149 129.836 48.2195C129.836 48.6373 129.886 49.0324 129.987 49.4068C130.088 49.7813 130.245 50.1078 130.456 50.3841C130.665 50.6626 130.934 50.8818 131.258 51.0394C131.585 51.1969 131.969 51.2768 132.417 51.2768C132.865 51.2768 133.244 51.1946 133.564 51.0302C133.883 50.8659 134.141 50.6604 134.338 50.4115C134.536 50.1649 134.683 49.8932 134.78 49.5941C134.876 49.2972 134.922 49.0209 134.922 48.7675V45.6143L134.925 45.6165Z" fill="#002145"/>
<path d="M147.357 51.375C147.293 51.4504 147.187 51.5691 147.042 51.7267C146.895 51.8842 146.7 52.0395 146.458 52.1925C146.217 52.3454 145.932 52.4779 145.608 52.592C145.284 52.7062 144.902 52.7633 144.47 52.7633C143.909 52.7633 143.385 52.656 142.903 52.4413C142.42 52.2267 141.997 51.9207 141.641 51.5303C141.282 51.1376 141.006 50.6604 140.809 50.0964C140.611 49.5324 140.512 48.9022 140.512 48.2058C140.512 47.3701 140.659 46.6509 140.954 46.0504C141.245 45.4476 141.62 44.9544 142.073 44.5685C142.526 44.1826 143.015 43.8995 143.546 43.7237C144.075 43.5456 144.576 43.4565 145.047 43.4565C145.684 43.4565 146.183 43.5319 146.539 43.6849C146.895 43.8378 147.171 43.952 147.362 44.0274V39.8284H149.083V51.6011C149.083 51.8865 149.09 52.1879 149.102 52.503H147.419L147.362 51.3819L147.357 51.375ZM147.357 45.6165C147.228 45.5161 146.994 45.3791 146.649 45.2078C146.304 45.0366 145.815 44.9521 145.176 44.9521C144.755 44.9521 144.369 45.0274 144.02 45.1804C143.668 45.3334 143.362 45.548 143.1 45.8266C142.838 46.1052 142.634 46.4477 142.489 46.8518C142.342 47.2582 142.268 47.7149 142.268 48.2195C142.268 48.6373 142.319 49.0324 142.42 49.4068C142.521 49.7813 142.677 50.1078 142.889 50.3841C143.098 50.6626 143.367 50.8818 143.691 51.0394C144.017 51.1969 144.401 51.2768 144.849 51.2768C145.298 51.2768 145.677 51.1946 145.996 51.0302C146.316 50.8659 146.573 50.6604 146.771 50.4115C146.969 50.1649 147.116 49.8932 147.212 49.5941C147.309 49.2972 147.355 49.0209 147.355 48.7675V45.6143L147.357 45.6165Z" fill="#002145"/>
<path d="M153.345 40.1642H155.278V42.0844H153.345V40.1642ZM153.46 43.6599H155.181V52.4963H153.46V43.6599Z" fill="#002145"/>
<path d="M159.544 45.5801V44.5641C159.544 44.2786 159.537 43.9795 159.525 43.6622H161.171L161.229 44.9933C161.344 44.8403 161.484 44.6737 161.649 44.4887C161.815 44.306 162.019 44.1371 162.261 43.9841C162.502 43.8311 162.787 43.7055 163.111 43.6051C163.435 43.5046 163.803 43.4521 164.212 43.4521C165.373 43.4521 166.232 43.7877 166.793 44.459C167.354 45.1303 167.635 46.0414 167.635 47.1944V52.4962H165.913V47.3269C165.913 46.5049 165.736 45.8975 165.377 45.5116C165.019 45.1257 164.515 44.9317 163.867 44.9317C163.369 44.9317 162.955 45.0321 162.624 45.2353C162.293 45.4386 162.028 45.7011 161.831 46.0231C161.633 46.3473 161.488 46.7126 161.401 47.1259C161.311 47.5392 161.268 47.9593 161.268 48.3909V52.4962H159.546L159.544 45.5801Z" fill="#002145"/>
<path d="M173.048 54.3023C173.342 54.5056 173.701 54.6791 174.128 54.8252C174.556 54.9713 175.075 55.0444 175.686 55.0444C176.541 55.0444 177.178 54.8092 177.599 54.3412C178.019 53.8731 178.231 53.2589 178.231 52.4985V51.4162C178.141 51.4916 178.024 51.5966 177.877 51.7291C177.73 51.8615 177.546 51.9894 177.323 52.1081C177.1 52.2291 176.836 52.3364 176.53 52.4323C176.224 52.5282 175.873 52.5739 175.477 52.5739C174.827 52.5739 174.25 52.4643 173.746 52.2405C173.243 52.019 172.818 51.7154 172.473 51.3295C172.128 50.9436 171.866 50.4801 171.689 49.9412C171.51 49.4024 171.42 48.8156 171.42 48.1831C171.42 47.4981 171.542 46.8702 171.784 46.2925C172.025 45.7148 172.367 45.2148 172.806 44.7924C173.245 44.3677 173.772 44.0389 174.383 43.8037C174.995 43.5685 175.677 43.4521 176.431 43.4521C177.158 43.4521 177.833 43.516 178.458 43.6416C179.084 43.7672 179.587 43.9065 179.969 44.0594V52.4962C179.969 53.7749 179.594 54.7659 178.849 55.4691C178.102 56.1724 177.054 56.524 175.703 56.524C174.797 56.524 174.077 56.4258 173.542 56.2294C173.006 56.0331 172.572 55.807 172.241 55.5559L173.043 54.3023H173.048ZM178.249 45.2194C178.134 45.1805 177.939 45.128 177.665 45.0573C177.39 44.9888 176.981 44.9522 176.431 44.9522C175.946 44.9522 175.507 45.0321 175.112 45.1897C174.716 45.3472 174.376 45.5687 174.089 45.8541C173.802 46.1395 173.579 46.4775 173.42 46.8702C173.262 47.2629 173.181 47.6945 173.181 48.1625C173.181 48.569 173.229 48.948 173.324 49.3019C173.418 49.6558 173.572 49.9663 173.783 50.2335C173.995 50.4984 174.259 50.7084 174.576 50.8614C174.896 51.0144 175.284 51.0897 175.744 51.0897C176.165 51.0897 176.535 51.0258 176.854 50.9002C177.174 50.7746 177.436 50.6057 177.638 50.3956C177.842 50.1855 177.994 49.9526 178.098 49.6924C178.201 49.4321 178.249 49.1626 178.249 48.8841V45.2194Z" fill="#002145"/>
<path d="M184.812 50.2722C185.129 50.5896 185.513 50.8431 185.958 51.0326C186.404 51.2221 186.922 51.318 187.508 51.318C188.082 51.318 188.56 51.2267 188.942 51.044C189.323 50.8613 189.517 50.5714 189.517 50.1786C189.517 49.9754 189.475 49.8019 189.392 49.6558C189.31 49.5096 189.169 49.3795 188.972 49.2653C188.774 49.1511 188.512 49.0461 188.188 48.9525C187.864 48.8566 187.457 48.7538 186.974 48.6397C186.63 48.5643 186.289 48.4616 185.952 48.336C185.614 48.2104 185.31 48.0415 185.044 47.8314C184.775 47.6236 184.559 47.3679 184.393 47.0711C184.228 46.7742 184.145 46.4157 184.145 45.9979C184.145 45.5686 184.244 45.1896 184.441 44.8677C184.639 44.5457 184.903 44.2717 185.234 44.0503C185.565 43.8288 185.94 43.6621 186.354 43.5456C186.768 43.4315 187.197 43.3744 187.646 43.3744C188.397 43.3744 189.045 43.4726 189.588 43.6689C190.13 43.8653 190.606 44.1416 191.013 44.4955L190.075 45.6737C189.806 45.4339 189.473 45.2307 189.071 45.0663C188.668 44.9019 188.202 44.8197 187.664 44.8197C187.115 44.8197 186.676 44.9088 186.345 45.0846C186.011 45.2627 185.846 45.5527 185.846 45.9591C185.846 46.3381 186.066 46.6212 186.506 46.8039C186.947 46.9866 187.521 47.1624 188.236 47.3268C188.657 47.4273 189.05 47.546 189.413 47.6784C189.776 47.8108 190.096 47.9821 190.369 48.1922C190.643 48.3999 190.861 48.658 191.02 48.9616C191.178 49.2653 191.259 49.6329 191.259 50.0645C191.259 50.5074 191.158 50.8979 190.953 51.2335C190.749 51.5692 190.475 51.8523 190.13 52.0783C189.786 52.3044 189.39 52.4779 188.944 52.5921C188.498 52.7062 188.032 52.7633 187.547 52.7633C185.864 52.7633 184.6 52.3135 183.759 51.4139L184.812 50.2722Z" fill="#002145"/>
<path d="M224.79 51.2039C224.686 51.3181 224.534 51.4642 224.33 51.6423C224.125 51.8204 223.861 51.9916 223.537 52.156C223.211 52.3204 222.829 52.4643 222.388 52.583C221.949 52.704 221.448 52.7634 220.887 52.7634C220.197 52.7634 219.567 52.6492 218.993 52.4209C218.418 52.1926 217.929 51.8706 217.519 51.4528C217.11 51.0349 216.795 50.5349 216.572 49.9526C216.349 49.3704 216.237 48.7242 216.237 48.0141C216.237 47.3679 216.345 46.7629 216.563 46.1989C216.779 45.6349 217.085 45.1486 217.48 44.7353C217.876 44.3243 218.345 43.9978 218.887 43.758C219.429 43.5183 220.025 43.3973 220.675 43.3973C221.441 43.3973 222.098 43.5434 222.645 43.8357C223.194 44.1279 223.643 44.5138 223.994 44.9956C224.344 45.4774 224.603 46.0276 224.769 46.6487C224.934 47.2698 225.017 47.9159 225.017 48.5872H217.997C218.011 48.98 218.096 49.3407 218.255 49.6695C218.414 49.9983 218.627 50.2837 218.896 50.5235C219.163 50.7632 219.471 50.955 219.813 51.0943C220.158 51.2336 220.521 51.3044 220.903 51.3044C221.654 51.3044 222.273 51.1788 222.758 50.923C223.243 50.6696 223.592 50.423 223.81 50.181L224.787 51.2062L224.79 51.2039ZM223.24 47.3086C223.19 46.6236 222.946 46.0413 222.514 45.5596C222.08 45.0778 221.468 44.838 220.678 44.838C220.268 44.838 219.903 44.9065 219.577 45.0481C219.252 45.1874 218.974 45.3701 218.745 45.5984C218.515 45.8267 218.335 46.0893 218.209 46.3861C218.083 46.6829 218.011 46.9912 218 47.3086H223.24Z" fill="#002145"/>
<path d="M227.773 43.66H229.743L232.517 50.5578L235.271 43.66H237.126L233.319 52.4964H231.598L227.773 43.66Z" fill="#002145"/>
<path d="M248.471 51.2039C248.368 51.3181 248.216 51.4642 248.011 51.6423C247.807 51.8204 247.542 51.9916 247.218 52.156C246.892 52.3204 246.51 52.4643 246.069 52.583C245.63 52.704 245.129 52.7634 244.568 52.7634C243.879 52.7634 243.249 52.6492 242.674 52.4209C242.1 52.1926 241.61 51.8706 241.201 51.4528C240.792 51.0349 240.477 50.5349 240.254 49.9526C240.031 49.3704 239.918 48.7242 239.918 48.0141C239.918 47.3679 240.026 46.7629 240.245 46.1989C240.461 45.6349 240.766 45.1486 241.162 44.7353C241.557 44.3243 242.026 43.9978 242.568 43.758C243.111 43.5183 243.706 43.3973 244.357 43.3973C245.122 43.3973 245.779 43.5434 246.326 43.8357C246.874 44.1279 247.324 44.5138 247.676 44.9956C248.025 45.4774 248.285 46.0276 248.45 46.6487C248.616 47.2698 248.699 47.9159 248.699 48.5872H241.679C241.693 48.98 241.778 49.3407 241.936 49.6695C242.095 49.9983 242.309 50.2837 242.578 50.5235C242.844 50.7632 243.152 50.955 243.495 51.0943C243.839 51.2336 244.203 51.3044 244.584 51.3044C245.336 51.3044 245.954 51.1788 246.439 50.923C246.924 50.6696 247.273 50.423 247.492 50.181L248.469 51.2062L248.471 51.2039ZM246.922 47.3086C246.871 46.6236 246.628 46.0413 246.195 45.5596C245.761 45.0778 245.15 44.838 244.359 44.838C243.95 44.838 243.584 44.9065 243.258 45.0481C242.934 45.1874 242.656 45.3701 242.426 45.5984C242.196 45.8267 242.017 46.0893 241.89 46.3861C241.764 46.6829 241.693 46.9912 241.681 47.3086H246.922Z" fill="#002145"/>
<path d="M252.528 45.5801V44.5641C252.528 44.2786 252.521 43.9795 252.51 43.6622H254.155L254.213 44.9933C254.328 44.8403 254.468 44.6737 254.633 44.4887C254.799 44.306 255.003 44.1371 255.245 43.9841C255.486 43.8311 255.771 43.7055 256.095 43.6051C256.419 43.5046 256.787 43.4521 257.196 43.4521C258.357 43.4521 259.217 43.7877 259.777 44.459C260.338 45.1303 260.619 46.0414 260.619 47.1944V52.4962H258.897V47.3269C258.897 46.5049 258.72 45.8975 258.362 45.5116C258.003 45.1257 257.5 44.9317 256.851 44.9317C256.353 44.9317 255.939 45.0321 255.608 45.2353C255.277 45.4386 255.013 45.7011 254.815 46.0231C254.617 46.3473 254.472 46.7126 254.385 47.1259C254.295 47.5392 254.252 47.9593 254.252 48.3909V52.4962H252.53L252.528 45.5801Z" fill="#002145"/>
<path d="M265.611 45.0846H264.004V43.6599H265.611V40.7715H267.333V43.6599H269.935V45.0846H267.333V49.4366C267.333 50.1467 267.443 50.6331 267.668 50.9002C267.891 51.1651 268.206 51.2998 268.615 51.2998C268.946 51.2998 269.222 51.2496 269.438 51.1468C269.654 51.0463 269.872 50.8934 270.089 50.6901L270.872 51.7359C270.502 52.0898 270.123 52.3478 269.735 52.5054C269.346 52.6629 268.884 52.7428 268.349 52.7428C267.404 52.7428 266.712 52.4894 266.273 51.9825C265.832 51.4756 265.613 50.6833 265.613 49.6079L265.611 45.0846Z" fill="#002145"/>
<path d="M274.676 50.2722C274.994 50.5896 275.378 50.8431 275.823 51.0326C276.269 51.2221 276.787 51.318 277.373 51.318C277.947 51.318 278.425 51.2267 278.807 51.044C279.188 50.8613 279.382 50.5714 279.382 50.1786C279.382 49.9754 279.34 49.8019 279.257 49.6558C279.175 49.5096 279.034 49.3795 278.837 49.2653C278.639 49.1511 278.377 49.0461 278.053 48.9525C277.729 48.8566 277.322 48.7538 276.839 48.6397C276.495 48.5643 276.154 48.4616 275.817 48.336C275.479 48.2104 275.175 48.0415 274.909 47.8314C274.64 47.6236 274.424 47.3679 274.258 47.0711C274.093 46.7742 274.01 46.4157 274.01 45.9979C274.01 45.5686 274.109 45.1896 274.306 44.8677C274.504 44.5457 274.768 44.2717 275.099 44.0503C275.43 43.8288 275.805 43.6621 276.219 43.5456C276.633 43.4315 277.062 43.3744 277.511 43.3744C278.262 43.3744 278.91 43.4726 279.453 43.6689C279.995 43.8653 280.471 44.1416 280.878 44.4955L279.94 45.6737C279.671 45.4339 279.338 45.2307 278.936 45.0663C278.533 44.9019 278.067 44.8197 277.529 44.8197C276.98 44.8197 276.541 44.9088 276.21 45.0846C275.876 45.2627 275.711 45.5527 275.711 45.9591C275.711 46.3381 275.931 46.6212 276.371 46.8039C276.812 46.9866 277.386 47.1624 278.101 47.3268C278.522 47.4273 278.915 47.546 279.278 47.6784C279.641 47.8108 279.961 47.9821 280.234 48.1922C280.508 48.3999 280.726 48.658 280.885 48.9616C281.043 49.2653 281.124 49.6329 281.124 50.0645C281.124 50.5074 281.023 50.8979 280.818 51.2335C280.614 51.5692 280.34 51.8523 279.995 52.0783C279.65 52.3044 279.255 52.4779 278.809 52.5921C278.363 52.7062 277.897 52.7633 277.412 52.7633C275.729 52.7633 274.465 52.3135 273.624 51.4139L274.676 50.2722Z" fill="#002145"/>
<path d="M208.295 47.0848H204.861V43.6735H203.289V47.0848H199.857V48.6443H203.289V52.0555H204.861V48.6443H208.295V47.0848Z" fill="#002145"/>
</svg>
